<?xml version="1.0" standalone="no"?>
<!DOCTYPE svg PUBLIC "-//W3C//DTD SVG 20010904//EN"
 "http://www.w3.org/TR/2001/REC-SVG-20010904/DTD/svg10.dtd">
<svg version="1.0" xmlns="http://www.w3.org/2000/svg"
 width="512.000000pt" height="512.000000pt" viewBox="0 0 512.000000 512.000000"
 preserveAspectRatio="xMidYMid meet">

<g transform="translate(0.000000,512.000000) scale(0.100000,-0.100000)"
fill="#000000" stroke="none">
<path d="M2430 5053 c-330 -34 -456 -58 -685 -134 -180 -59 -427 -178 -580
-279 -605 -398 -1000 -1007 -1109 -1710 -42 -271 -41 -507 5 -778 87 -519 321
-974 694 -1348 197 -197 415 -354 666 -479 314 -155 617 -235 1000 -265 265
-21 598 20 892 109 665 201 1222 674 1528 1296 207 420 295 904 244 1340 -67
570 -297 1065 -679 1462 -373 388 -843 643 -1368 742 -195 37 -477 58 -608 44z
m470 -177 c956 -127 1746 -794 2004 -1693 66 -228 81 -347 80 -628 0 -267 -9
-346 -60 -550 -166 -662 -620 -1220 -1245 -1529 -1117 -555 -2479 -194 -3149
834 -137 212 -267 521 -319 763 -177 821 116 1681 763 2234 390 334 876 536
1401 583 126 11 387 4 525 -14z"/>
<path d="M2425 4829 c-1142 -74 -2060 -938 -2176 -2050 -15 -140 -6 -449 16
-579 169 -1001 963 -1759 2000 -1906 144 -21 455 -23 595 -5 530 68 1003 290
1364 640 236 229 401 466 520 744 195 457 234 949 112 1431 -230 908 -1021
1594 -1971 1710 -161 20 -315 25 -460 15z m-305 -349 c10 -13 20 -48 24 -79
12 -106 17 -456 9 -572 l-8 -117 102 108 c56 58 132 132 170 162 274 224 605
360 968 399 209 22 355 -8 355 -73 0 -33 -138 -161 -214 -198 l-68 -34 -87 22
c-102 27 -247 30 -331 7 -134 -35 -314 -160 -402 -276 -169 -226 -219 -310
-267 -455 -185 -550 60 -1164 569 -1428 259 -134 454 -180 670 -156 147 16
248 51 373 128 26 16 29 16 64 -3 42 -22 59 -58 49 -99 -13 -54 -244 -246
-382 -318 -260 -136 -590 -165 -887 -77 -104 31 -273 121 -364 193 -44 36
-112 104 -150 151 l-68 84 -30 -28 c-46 -44 -180 -128 -239 -150 -87 -32 -168
-46 -217 -35 l-44 9 -6 1070 c-3 607 -11 1177 -18 1316 -12 241 -12 248 8 286
28 56 65 98 119 135 66 45 115 58 206 55 68 -3 81 -7 96 -27z m-606 -337 c91
-281 116 -1814 41 -2478 -7 -66 -10 -124 -5 -128 4 -5 126 -12 271 -17 268 -9
537 -34 754 -71 156 -26 355 -69 378 -81 10 -5 86 -13 170 -19 246 -15 582
-77 831 -153 112 -35 121 -50 66 -109 -85 -93 -265 -161 -535 -202 -24 -4 -64
0 -100 10 -92 24 -445 72 -690 94 -355 32 -564 42 -1020 47 -245 3 -444 9
-461 15 -43 13 -100 70 -114 113 -8 26 -8 75 0 198 7 90 14 518 17 953 5 784
-4 1283 -28 1518 -8 78 -9 115 -1 132 26 58 201 174 315 210 80 25 93 21 111
-32z m2469 -103 c94 -35 156 -123 136 -193 -19 -71 -119 -135 -237 -153 -40
-6 -46 -4 -80 29 -83 79 -164 94 -287 52 -240 -80 -412 -269 -476 -526 -18
-69 -21 -104 -17 -213 4 -114 8 -142 35 -219 40 -115 83 -185 167 -274 111
-119 245 -190 400 -213 92 -14 120 -10 172 24 73 47 95 68 120 118 34 66 41
139 21 209 -21 71 -55 116 -125 162 l-57 37 -223 0 -223 0 -24 25 c-14 13 -25
29 -25 36 0 22 165 175 215 200 l50 24 505 0 c477 1 507 2 537 20 17 10 37 29
44 42 9 17 21 23 46 23 l33 0 0 -150 0 -150 -125 0 -125 0 0 -59 c0 -79 -24
-210 -55 -300 -105 -308 -363 -548 -667 -621 -101 -24 -290 -27 -400 -6 -591
113 -926 804 -665 1369 89 191 162 269 452 479 172 123 408 208 665 237 121
14 156 12 213 -9z"/>
</g>
</svg>
