<?xml version="1.0" standalone="no"?>
<!DOCTYPE svg PUBLIC "-//W3C//DTD SVG 20010904//EN"
 "http://www.w3.org/TR/2001/REC-SVG-20010904/DTD/svg10.dtd">
<svg version="1.0" xmlns="http://www.w3.org/2000/svg"
 width="2560.000000pt" height="1024.000000pt" viewBox="0 0 2560.000000 1024.000000"
 preserveAspectRatio="xMidYMid meet">

<g transform="translate(0.000000,1024.000000) scale(0.100000,-0.100000)"
fill="#000000" stroke="none">
<path d="M0 5120 l0 -5120 12800 0 12800 0 0 5120 0 5120 -12800 0 -12800 0 0
-5120z m13990 4590 c603 -22 1094 -51 1630 -96 3571 -295 6545 -1166 8165
-2391 544 -411 934 -864 1129 -1309 335 -764 183 -1542 -441 -2266 -101 -118
-348 -357 -483 -470 -601 -499 -1420 -947 -2425 -1328 -1874 -710 -4298 -1158
-6995 -1295 -638 -32 -959 -39 -1770 -39 -811 0 -1107 7 -1755 39 -3684 187
-6812 947 -8735 2125 -587 359 -1073 788 -1377 1215 -307 431 -453 911 -416
1364 36 432 207 831 529 1236 100 126 405 435 539 546 956 798 2441 1458 4337
1929 1336 332 2790 553 4453 675 458 34 1167 66 1760 79 270 6 1583 -4 1855
-14z"/>
<path d="M22810 7159 c-118 -20 -242 -100 -309 -200 -63 -94 -84 -176 -79
-307 3 -98 6 -113 39 -182 43 -88 104 -161 174 -205 261 -166 602 -72 733 202
34 72 37 86 40 184 6 171 -34 275 -144 379 -123 114 -277 158 -454 129z m221
-105 c191 -56 317 -255 279 -441 -47 -232 -282 -373 -507 -305 -126 39 -234
141 -268 257 -23 76 -19 199 9 267 44 106 133 188 241 221 66 21 178 21 246 1z"/>
<path d="M22730 6685 l0 -295 45 0 45 0 0 105 0 105 63 0 64 0 58 -105 59
-105 49 0 49 0 -25 43 c-14 23 -42 73 -62 110 l-38 68 36 37 c87 90 86 210 -2
285 -45 37 -90 47 -223 47 l-118 0 0 -295z m255 191 c69 -29 84 -109 31 -162
-33 -33 -36 -34 -115 -34 l-81 0 0 105 0 105 65 0 c36 0 81 -6 100 -14z"/>
<path d="M12575 6958 c4 -13 14 -45 23 -73 15 -45 17 -200 20 -1715 3 -1692 2
-1771 -34 -1855 -8 -19 -14 -37 -14 -40 0 -3 1001 -5 2225 -5 l2225 0 0 510
c0 281 -1 510 -2 510 -2 0 -32 -10 -68 -23 l-65 -22 -1037 -3 -1038 -3 0 246
0 245 905 0 905 0 0 390 0 390 -905 0 -905 0 0 245 0 245 1013 0 c1050 0 1011
1 1175 -37 l22 -5 -2 508 -3 509 -2224 3 -2223 2 7 -22z"/>
<path d="M2575 6948 c4 -13 14 -45 23 -73 16 -46 17 -195 17 -1750 0 -1797 1
-1730 -40 -1837 -7 -17 56 -18 1240 -18 1184 0 1247 1 1240 18 -41 107 -40 40
-40 1837 0 1555 1 1704 17 1750 9 28 19 60 23 73 l7 22 -1247 0 -1247 0 7 -22z"/>
<path d="M6174 6958 c2 -7 13 -38 23 -68 17 -52 18 -142 18 -1770 0 -1628 -1
-1718 -18 -1770 -10 -30 -21 -61 -23 -67 -5 -10 228 -13 1141 -13 1088 0 1147
1 1142 18 -41 131 -39 93 -44 857 -4 646 -3 728 10 715 14 -14 179 -257 633
-932 206 -305 292 -463 322 -586 l17 -72 1378 0 1379 0 -72 78 c-103 111 -174
209 -477 657 -509 754 -963 1433 -963 1440 0 9 908 1090 1016 1209 95 104 202
205 289 270 28 21 52 40 54 42 2 2 -533 4 -1191 4 l-1195 0 -13 -42 c-44 -147
-132 -273 -679 -973 -250 -319 -463 -592 -475 -607 -12 -15 -24 -27 -28 -27
-11 -1 -9 1265 1 1419 6 83 16 143 29 178 l20 52 -1150 0 c-916 0 -1149 -3
-1144 -12z"/>
<path d="M18698 6937 c2 -18 -5 -69 -15 -112 -11 -44 -280 -780 -597 -1635
-318 -855 -589 -1586 -603 -1625 -32 -89 -76 -177 -117 -235 -18 -25 -35 -51
-40 -57 -6 -10 185 -13 941 -13 l948 0 2 62 c2 74 31 178 106 378 l54 145 696
3 696 2 19 -42 c87 -198 153 -381 163 -456 l12 -82 1199 0 1199 0 -39 53 c-54
72 -87 131 -116 209 -61 162 -1023 2610 -1184 3013 -101 254 -129 345 -118
396 l6 29 -1608 0 -1608 0 4 -33z m1386 -1308 c14 -48 104 -288 201 -533 96
-246 175 -451 175 -457 0 -5 -156 -9 -395 -9 -217 0 -395 1 -395 3 0 2 70 192
156 423 169 455 195 529 215 618 7 33 14 55 16 50 1 -5 14 -48 27 -95z"/>
</g>
</svg>
