<?xml version="1.0" standalone="no"?>
<!DOCTYPE svg PUBLIC "-//W3C//DTD SVG 20010904//EN"
 "http://www.w3.org/TR/2001/REC-SVG-20010904/DTD/svg10.dtd">
<svg version="1.0" xmlns="http://www.w3.org/2000/svg"
 width="512.000000pt" height="512.000000pt" viewBox="0 0 512.000000 512.000000"
 preserveAspectRatio="xMidYMid meet">

<g transform="translate(0.000000,512.000000) scale(0.100000,-0.100000)"
fill="#000000" stroke="none">
<path d="M0 2560 l0 -2560 2560 0 2560 0 0 2560 0 2560 -2560 0 -2560 0 0
-2560z m2338 2009 c62 -27 99 -63 128 -124 l24 -50 0 -512 0 -513 318 0 c312
0 318 -1 367 -24 60 -28 97 -66 124 -126 18 -39 21 -66 21 -195 0 -137 -2
-154 -24 -200 -28 -60 -66 -97 -126 -124 -42 -19 -65 -21 -363 -21 l-318 0 3
-637 c3 -584 5 -643 22 -693 10 -30 28 -66 39 -79 43 -46 70 -51 314 -51 l228
0 60 -29 c70 -33 96 -59 124 -121 18 -39 21 -66 21 -195 0 -137 -2 -154 -24
-200 -28 -60 -66 -97 -126 -124 -42 -19 -65 -21 -331 -21 -312 0 -358 6 -500
65 -277 116 -429 314 -496 645 -15 77 -17 222 -20 1615 -3 1407 -2 1533 13
1574 34 89 113 149 214 162 97 13 256 2 308 -22z"/>
</g>
</svg>
